PathFileType	4	(X/Y/Z)	C:/Users/beibeiliu/ov580/test_trc/User2\sequence.21_training_dense_right.trc
DataRate	CameraRate	NumFrames	NumMarkers	Units	OrigDataRate	OrigDataStartFrame	OrigNumFrames
120	120	22	19	mm	120	1	322
Frame#	Time	ThumbCMC			ThumbMCP			ThumbIP			ThumbTip			IndexMCP			IndexPIP			IndexTip			MiddleMCP			MiddlePIP			MiddleTip			RingMCP			RingPIP			RingTip			PinkyMCP			PinkyPIP			PinkyTip			BackHand1			BackHand2			BackHand3	
		X0	Y0	Z0	X1	Y1	Z1	X2	Y2	Z2	X3	Y3	Z3	X4	Y4	Z4	X5	Y5	Z5	X6	Y6	Z6	X7	Y7	Z7	X8	Y8	Z8	X9	Y9	Z9	X10	Y10	Z10	X11	Y11	Z11	X12	Y12	Z12	X13	Y13	Z13	X14	Y14	Z14	X15	Y15	Z15	X16	Y16	Z16	X17	Y17	Z17	X18	Y18	Z18	
0	0	46.6326	-16.7299	60.8395	13.6097	-19.1548	48.6966	-11.9467	-23.6005	24.9163	-28.2684	-29.5194	7.90307	36.9683	3.1297	-21.9273	23.4766	1.84293	-50.5975	11.3869	0.609527	-72.0182	66.3809	2.09758	-37.5396	56.3683	0.791466	-67.5966	53.3681	-3.06805	-100.05	88.2359	-9.18436	-39.1075	86.136	-10.4033	-66.1597	85.2844	-9.97065	-95.1478	108.495	-22.9205	-28.674	111.694	-24.9646	-54.3368	115.765	-23.1024	-75.7391	100.392	-3.92018	16.8084	109.661	0.518064	50.0158	72.3435	5.16603	42.9351	
1	0.00833333	42.9484	-15.4575	56.7919	17.4353	-20.2519	48.394	-11.1722	-23.5756	23.4346	-30.8382	-30.2945	11.4711	36.7895	2.46524	-22.1645	21.5312	3.52223	-49.4961	13.4159	-0.473009	-76.8751	62.7047	2.02352	-36.0248	54.313	0.436053	-71.5414	51.7779	-2.88572	-102.041	85.334	-8.38481	-41.1362	90.2157	-11.6857	-63.9389	83.395	-9.49666	-94.7929	107.685	-23.6166	-28.0016	111.803	-24.9086	-55.7806	111.214	-22.9438	-79.8576	99.8791	-4.82107	16.6522	109.543	-0.953129	49.1259	70.9692	6.37025	39.798	
2	0.0166667	43.4772	-15.4556	61.9749	16.7569	-19.7323	45.8203	-12.4435	-23.1122	24.7269	-28.5205	-29.3833	9.01082	36.9724	2.87927	-22.9109	21.9225	3.58387	-45.8166	14.7531	0.165283	-74.0658	61.6258	2.48701	-41.2053	54.0919	0.645483	-71.1546	51.5811	-3.50169	-103.567	88.3526	-9.01499	-40.3235	86.1443	-10.8552	-63.4786	83.9589	-10.6011	-93.8744	107.853	-21.9989	-29.3178	111.671	-26.1126	-53.4388	112.039	-23.207	-75.9208	100.544	-4.44836	15.2071	111.858	-0.204398	45.5168	73.4605	6.7264	40.4538	
3	0.025	41.5719	-14.3552	59.468	15.227	-19.0768	49.1684	-12.314	-22.5165	23.3296	-31.1221	-29.3732	8.87539	35.5112	3.83576	-20.2852	20.3635	3.97338	-49.8452	14.8029	0.294626	-75.9232	65.9623	2.58291	-39.9625	57.5793	0.463845	-73.059	54.0052	-4.1588	-102.192	86.7079	-6.85581	-41.6093	87.0315	-9.22871	-67.6274	82.276	-9.97314	-94.4509	107.763	-21.8804	-28.1305	110.25	-25.5699	-51.3653	113.231	-22.2423	-79.6087	98.1027	-1.72787	15.9592	110.825	-1.72584	48.5465	68.7695	6.97132	38.1064	
4	0.0333333	40.4763	-13.3544	58.6862	16.0226	-19.2256	47.9722	-12.1769	-22.9412	25.096	-30.1642	-30.2491	7.78349	36.063	4.41641	-24.3506	21.6119	4.86019	-46.8499	15.6066	-0.171252	-75.1974	62.4237	3.35096	-35.547	55.556	0.355231	-72.2667	51.5899	-2.27239	-99.7072	86.864	-8.28732	-36.6365	84.1387	-9.10783	-67.753	82.5679	-8.72207	-95.6962	109.565	-23.3919	-25.9463	110.691	-24.1296	-55.8721	112.964	-23.2425	-79.9814	99.6076	-3.01799	18.8874	113.883	-0.233471	47.761	74.9966	5.7428	40.3023	
5	0.0416667	40.932	-14.4659	57.2577	17.8653	-20.297	46.3891	-8.83898	-25.079	27.9741	-27.9123	-31.0239	10.5351	34.0549	3.48975	-22.0024	25.0205	3.56216	-50.5935	9.34569	1.15571	-75.9467	65.0929	2.64381	-36.4403	59.2593	0.917274	-69.446	51.8726	-2.02011	-98.0257	85.7817	-7.72094	-40.0392	88.0788	-9.71752	-65.0325	81.128	-10.2022	-91.6969	110.867	-23.0228	-29.6341	109.445	-24.4675	-52.2472	115.188	-21.6794	-80.7257	103.075	-4.66565	15.0055	110.567	-1.21325	45.7321	73.8279	5.6297	36.5566	
6	0.05	43.5675	-15.0398	57.2175	15.3092	-18.1974	48.9693	-13.6282	-22.1625	26.8797	-31.152	-29.8478	12.317	35.5789	3.74777	-22.8854	20.4672	4.70432	-49.1293	15.2857	1.18455	-76.4809	62.5364	3.88108	-37.1221	57.1174	1.05349	-69.0703	52.318	-2.28118	-100.108	90.2161	-7.94107	-40.711	89.3195	-10.191	-65.5001	85.0352	-10.4562	-92.1636	108.822	-22.4473	-26.526	113.485	-25.1726	-55.1324	114.951	-22.1197	-81.4994	100.881	-2.54915	18.6455	109.204	-0.701101	48.5294	72.0645	5.81669	37.7894	
7	0.0583333	44.5333	-14.349	61.5724	16.1893	-17.1947	48.4179	-11.2747	-21.6624	27.0796	-30.3952	-27.7926	10.1609	34.5009	5.89328	-22.5041	23.4949	4.87446	-51.8328	12.7814	3.35831	-78.0166	64.8921	3.74221	-39.5337	57.7056	1.64557	-70.8895	54.829	-2.17222	-104.978	91.2397	-8.03665	-41.6098	90.7165	-9.44799	-67.0995	82.8789	-8.18154	-91.8901	110.154	-21.7325	-25.5244	111.412	-23.933	-51.5947	116.606	-20.8886	-78.5789	100.201	-0.353393	14.4161	111.404	0.670027	49.8767	71.7367	7.75707	41.1402	
8	0.0666667	46.6244	-12.8267	55.7673	17.6197	-16.5863	48.3515	-7.31223	-21.4152	27.5094	-27.9373	-28.0105	12.1149	37.2821	6.97106	-24.3675	24.1525	8.03571	-49.5393	16.8662	5.44575	-73.7897	67.4336	6.07184	-38.2794	59.5023	3.16183	-73.2692	54.7513	-0.269138	-98.5426	90.1227	-4.59568	-37.029	88.928	-7.15851	-63.8125	85.1897	-6.46424	-95.1762	112.412	-19.9949	-27.744	110.925	-22.625	-54.5597	117.63	-22.7752	-76.7276	106.191	0.253209	14.8686	115.105	1.1582	46.0171	76.7607	7.78383	40.9308	
9	0.075	47.2261	-10.9765	60.9668	18.4828	-17.1524	47.2229	-7.24163	-21.6194	27.6186	-27.3241	-27.7745	10.3598	40.7609	9.89505	-24.7462	25.265	9.85595	-45.5199	16.1976	7.35137	-75.7984	65.2973	10.5317	-39.5954	60.3367	6.54883	-72.7323	54.6158	3.05291	-99.1362	92.2272	-2.24226	-37.3336	88.7162	-4.37406	-63.8332	83.924	-5.02437	-93.4422	115.366	-18.5978	-28.791	112.573	-21.1066	-54.7671	112.464	-19.4038	-78.7084	103.095	0.350844	18.6575	115.983	1.97719	45.1455	80.5086	11.0146	41.4186	
10	0.0833333	49.9456	-9.58585	56.1662	17.7407	-15.7496	44.9438	-8.78075	-23.2236	25.6071	-24.768	-30.5984	6.79044	41.8834	13.3473	-20.6658	25.856	13.8275	-49.8409	22.0195	11.201	-75.0713	69.6081	12.4791	-39.5836	65.5503	10.3194	-70.2137	57.9974	3.87354	-100.68	94.2566	0.390832	-41.8853	90.8948	-1.69003	-65.8214	84.5237	-4.06655	-94.348	116.377	-16.9518	-30.3574	111.815	-19.4125	-56.2817	110.417	-20.1951	-84.3124	105.695	2.89652	19.7415	117.839	5.08587	49.0388	80.9341	10.7701	41.7007	
11	0.0916667	51.1554	-10.3289	59.5989	25.0536	-17.5242	42.9351	-5.67117	-24.1879	19.2575	-23.5355	-32.0871	2.32127	41.7618	16.5427	-22.7852	31.0696	17.2605	-50.6704	21.7596	13.8493	-77.6491	70.0272	15.4903	-36.1251	65.5798	12.5615	-72.1997	56.3595	4.72506	-101.272	94.8732	2.87217	-41.6845	92.1526	-1.50755	-67.0045	81.6885	-6.71251	-97.0562	111.701	-12.688	-33.6761	111.04	-18.7303	-61.1606	107.53	-24.9437	-84.8729	108.423	5.13217	13.8855	118.578	5.0961	47.3008	78.0754	13.6277	38.9032	
12	0.1	49.8292	-8.23545	58.3947	25.645	-17.7374	40.3984	0.369001	-26.2442	19.6442	-16.4165	-33.5829	0.667107	43.334	22.3463	-24.3468	34.5469	21.3306	-50.8305	23.6917	18.1159	-73.1544	71.1102	20.2116	-40.5663	67.9456	12.0709	-74.9734	59.1151	-0.597081	-101.111	94.3227	5.29153	-42.8101	91.9079	-2.33849	-71.41	77.0681	-11.4003	-95.8334	114.309	-11.1407	-34.3741	106.732	-18.5126	-60.2672	97.2768	-29.4382	-83.1921	109.411	9.14717	16.0995	119.807	5.33762	46.7348	82.0987	17.3062	42.9203	
13	0.108333	54.4395	-7.41869	53.4425	26.9386	-18.9175	37.1331	5.42589	-26.6515	13.0363	-9.78793	-36.2689	-4.71616	50.9387	23.6322	-22.6685	39.833	24.7973	-51.1887	27.8219	20.1588	-79.4994	78.7081	20.2997	-37.1697	69.2544	12.9023	-71.4695	56.5031	-10.6427	-99.0368	97.0521	5.50402	-44.2872	85.1741	-1.89174	-67.7677	74.0111	-20.5257	-88.5955	115.763	-11.7907	-31.9908	103.069	-22.6951	-61.7597	88.1967	-35.5784	-75.8012	111.851	8.23961	19.1393	122.128	5.97167	45.7775	84.2638	19.0612	43.7154	
14	0.116667	54.2173	-7.02111	52.7484	27.0754	-20.1941	36.2318	8.95384	-28.6558	8.25657	-3.48076	-37.0274	-17.6328	51.3358	27.3572	-25.8466	43.0836	24.6046	-54.4815	31.8882	19.3106	-77.9078	75.0191	20.3261	-38.6831	68.5567	7.46159	-70.8971	51.129	-23.5961	-87.6673	96.8499	3.37066	-43.6363	81.7438	-10.7992	-70.121	62.09	-37.5658	-76.3567	111.898	-13.484	-32.5064	100.059	-27.1104	-59.9129	75.9554	-50.0862	-65.1806	116.098	6.10309	15.7731	123.184	5.33526	47.5036	86.2614	18.1532	39.2869	
15	0.125	54.1453	-3.99648	51.8681	30.8808	-18.7999	31.8481	11.6008	-28.1462	4.39468	4.82098	-37.4414	-19.8748	54.3484	27.3107	-26.566	43.8113	23.2893	-55.6001	34.3075	16.0059	-79.3771	75.9792	17.0756	-42.5299	59.5008	-2.09024	-69.7191	44.224	-34.0029	-69.6927	89.67	0.31281	-44.6092	79.5884	-20.0087	-65.5634	57.9611	-49.4754	-54.7996	108.564	-17.953	-34.8011	89.8234	-36.7217	-55.0161	68.2453	-58.6996	-44.1736	119.326	4.52642	14.8181	128.259	2.82689	42.7512	90.5159	17.7571	41.4036	
16	0.133333	58.9691	-2.72857	50.4273	30.364	-14.8879	28.9489	15.4006	-24.1168	-2.28379	7.5013	-34.2564	-25.641	57.6131	27.3407	-29.9423	46.1654	22.8907	-56.2695	38.8645	9.48766	-83.0102	75.1848	14.7187	-41.3629	55.6705	-8.64621	-64.1517	43.8471	-42.2895	-48.829	88.2902	-5.71647	-42.1342	67.86	-30.7985	-56.9308	52.7335	-51.7801	-31.0638	106.001	-24.5669	-34.7769	78.2393	-46.4519	-45.4881	63.8045	-60.45	-20.7191	119.017	3.23536	13.533	130.525	-0.387257	44.0475	94.5366	17.4502	40.0214	
17	0.141667	57.8544	3.60986	47.9428	33.4446	-10.031	24.1784	11.8318	-18.6961	0.156058	4.38716	-27.8654	-23.092	62.6133	26.1015	-33.826	50.7259	19.7931	-59.4044	38.9809	7.1961	-80.9815	73.5775	8.31239	-46.1972	49.5023	-17.8433	-58.1123	35.8717	-39.9001	-30.8278	81.9937	-11.1574	-45.7353	61.168	-38.7426	-48.4359	50.6577	-45.98	-17.6495	96.2028	-30.0435	-38.0317	69.7771	-51.746	-36.4236	62.564	-59.7357	-7.22739	121.031	-0.171408	9.37129	131.838	-4.06711	42.9097	95.7224	19.7876	37.977	
18	0.15	59.5854	9.35467	50.676	32.894	-2.27651	24.4103	9.43171	-10.2592	2.0432	-2.7084	-18.4567	-21.8169	63.8779	28.9764	-33.5587	52.3115	20.625	-58.4578	37.9487	4.57779	-83.0766	70.5127	8.76247	-47.4995	48.2011	-16.2709	-55.0827	37.6746	-36.8861	-19.4213	83.7079	-17.0968	-44.7925	56.155	-35.981	-45.7515	50.8194	-39.6133	-7.7973	93.6648	-34.2553	-35.6513	61.7477	-50.4828	-28.7875	61.648	-50.8537	0.118658	118.436	-1.01403	6.32793	128.426	-7.21149	39.1955	102.563	19.2745	33.2929	
19	0.158333	64.0475	15.7745	45.3692	37.5187	5.34192	22.7452	13.1918	-0.150686	3.11973	-5.31806	-6.18203	-17.5925	69.3123	28.4176	-34.2468	53.147	21.2707	-60.3879	35.4157	10.3388	-79.1135	73.9082	3.00274	-48.9737	43.6389	-16.0517	-49.6204	35.747	-26.7445	-10.8878	76.0569	-20.1309	-46.5212	48.6094	-32.5404	-38.4486	52.5685	-31.0264	-0.295497	87.4843	-36.5937	-33.2894	56.5218	-48.4837	-24.5935	59.5589	-37.7069	8.53531	119.265	-5.11093	2.09415	131.441	-11.6218	33.6504	108.871	17.3287	31.6359	
20	0.166667	70.322	18.4831	41.1302	40.5509	12.9958	26.2243	10.1762	12.0249	4.11689	-3.12885	4.24192	-15.6867	74.911	24.135	-39.0971	54.8133	22.3851	-61.7175	34.1781	10.6904	-78.4061	75.0704	5.71288	-46.4103	41.8109	-12.0674	-48.4263	35.4567	-14.8779	-4.56418	72.2723	-20.4767	-44.6672	43.8876	-29.2563	-32.0079	51.7733	-27.9409	1.30984	80.0898	-43.4493	-33.2111	50.8091	-46.8841	-18.9566	60.0131	-36.1082	12.4591	123.254	-15.837	3.74273	133.686	-18.5171	34.8128	109.734	19.6637	25.1729	
21	0.175	74.1626	25.1243	39.0665	43.0558	18.2748	21.1556	12.5526	20.8724	2.54306	-4.49841	15.0022	-11.4287	76.2573	24.3975	-44.2674	58.9004	22.7252	-62.5232	31.1038	10.7658	-79.9817	72.9398	2.1883	-48.4132	36.9605	-5.89989	-41.1946	38.8266	-8.2666	-1.2027	67.8545	-24.3339	-43.1996	42.0171	-27.4845	-30.1464	51.7759	-21.3065	5.29101	71.1155	-42.8996	-31.2691	45.6302	-38.2134	-12.7538	60.3149	-27.6323	14.26	120.586	-15.3712	4.41021	130.643	-21.439	34.9026	117.127	13.5134	24.758	
